<svg width="17" height="12" viewBox="0 0 17 12" fill="none" xmlns="http://www.w3.org/2000/svg">
<path d="M9.82498 5.40528L14.9879 0.246315C15.1455 0.0886771 15.3592 7.50501e-05 15.582 4.76562e-08C15.8049 -7.49548e-05 16.0187 0.0883832 16.1763 0.245915C16.3339 0.403446 16.4225 0.617147 16.4226 0.840005C16.4227 1.06286 16.3342 1.27662 16.1767 1.43426L11.6073 5.99966L16.1727 10.5651C16.2507 10.6431 16.3127 10.7358 16.3549 10.8378C16.3972 10.9397 16.4189 11.049 16.4189 11.1594C16.4189 11.2698 16.3972 11.3791 16.3549 11.4811C16.3127 11.5831 16.2507 11.6757 16.1727 11.7538C16.0946 11.8319 16.002 11.8938 15.9 11.936C15.798 11.9783 15.6887 12 15.5783 12C15.4679 12 15.3586 11.9783 15.2566 11.936C15.1547 11.8938 15.062 11.8319 14.9839 11.7538L9.82418 6.59403C9.74617 6.51603 9.68429 6.42343 9.64207 6.32152C9.59986 6.2196 9.57812 6.11037 9.57812 6.00006C9.57812 5.88975 9.59986 5.78051 9.64207 5.6786C9.68429 5.57668 9.74617 5.48408 9.82418 5.40608L9.82498 5.40528Z" fill="#1A1A1A"/>
<path d="M0.824977 5.40528L5.98795 0.246315C6.14548 0.0886771 6.35918 7.50501e-05 6.58204 4.76562e-08C6.80489 -7.49548e-05 7.01865 0.0883832 7.17629 0.245915C7.33393 0.403446 7.42253 0.617147 7.42261 0.840005C7.42268 1.06286 7.33423 1.27662 7.17669 1.43426L2.6073 5.99966L7.17269 10.5651C7.25074 10.6431 7.31267 10.7358 7.35491 10.8378C7.39715 10.9397 7.41889 11.049 7.41889 11.1594C7.41889 11.2698 7.39715 11.3791 7.35491 11.4811C7.31267 11.5831 7.25074 11.6757 7.17269 11.7538C7.09464 11.8319 7.00197 11.8938 6.89999 11.936C6.79801 11.9783 6.6887 12 6.57832 12C6.46793 12 6.35863 11.9783 6.25665 11.936C6.15467 11.8938 6.062 11.8319 5.98394 11.7538L0.824177 6.59403C0.74617 6.51603 0.684292 6.42343 0.642075 6.32152C0.599857 6.2196 0.578125 6.11037 0.578125 6.00006C0.578125 5.88975 0.599857 5.78051 0.642075 5.6786C0.684292 5.57668 0.74617 5.48408 0.824177 5.40608L0.824977 5.40528Z" fill="#1A1A1A"/>
</svg>
