<svg width="21" height="21" viewBox="0 0 21 21" fill="none" xmlns="http://www.w3.org/2000/svg">
<path d="M14.6038 3.16848C14.8158 2.95654 15.0674 2.78843 15.3443 2.67373C15.6212 2.55903 15.918 2.5 16.2177 2.5C16.5174 2.5 16.8142 2.55903 17.0911 2.67373C17.368 2.78843 17.6196 2.95654 17.8315 3.16848C18.0435 3.38041 18.2116 3.63201 18.3263 3.90891C18.441 4.18582 18.5 4.4826 18.5 4.78232C18.5 5.08204 18.441 5.37882 18.3263 5.65573C18.2116 5.93263 18.0435 6.18423 17.8315 6.39617L6.93807 17.2896L2.5 18.5L3.71038 14.0619L14.6038 3.16848Z" stroke="#008DFF" stroke-width="1.5" stroke-linecap="round" stroke-linejoin="round"/>
</svg>
