<svg width="16" height="17" viewBox="0 0 16 17" fill="none" xmlns="http://www.w3.org/2000/svg">
<path d="M14.5266 4.43515L10.2757 1.19338C9.62154 0.696339 8.82255 0.427246 8.00095 0.427246C7.17936 0.427246 6.38037 0.696339 5.72617 1.19338L1.47634 4.43515C1.01855 4.78627 0.6474 5.23774 0.391456 5.7548C0.135511 6.27187 0.00159133 6.84076 0 7.41771V12.6766C0.00112933 13.671 0.396643 14.6243 1.09977 15.3275C1.8029 16.0306 2.75622 16.4261 3.7506 16.4272H12.2524C13.2464 16.4256 14.1992 16.0298 14.9018 15.3267C15.6045 14.6237 15.9997 13.6707 16.0008 12.6766V7.41771C15.9999 6.84004 15.8663 6.27031 15.6103 5.75245C15.3544 5.23459 14.9829 4.78245 14.5245 4.43088L14.5266 4.43515ZM14.7528 12.6766C14.7519 13.3395 14.4882 13.975 14.0195 14.4438C13.5508 14.9125 12.9153 15.1762 12.2524 15.177H3.7506C3.08771 15.1762 2.45222 14.9125 1.98348 14.4438C1.51475 13.975 1.25105 13.3395 1.2502 12.6766V7.41771C1.25136 7.03306 1.34071 6.6538 1.5114 6.30909C1.68209 5.96439 1.92956 5.66342 2.23478 5.42933L6.48567 2.18756C6.92178 1.85629 7.45437 1.67694 8.00202 1.67694C8.54968 1.67694 9.08227 1.85629 9.51837 2.18756L13.7693 5.42933C14.0743 5.66353 14.3216 5.96454 14.4921 6.30924C14.6626 6.65394 14.7517 7.03314 14.7528 7.41771V12.6766ZM13.4055 8.11001C13.506 8.24173 13.5501 8.40797 13.5281 8.57218C13.5061 8.7364 13.4198 8.88517 13.2882 8.98579L10.2757 11.2835C9.62154 11.7805 8.82255 12.0496 8.00095 12.0496C7.17936 12.0496 6.38037 11.7805 5.72617 11.2835L2.74681 9.01032C2.61497 8.90975 2.52849 8.76092 2.50638 8.59658C2.48428 8.43224 2.52836 8.26585 2.62894 8.13401C2.72951 8.00217 2.87834 7.91569 3.04268 7.89358C3.20702 7.87148 3.37341 7.91556 3.50525 8.01614L6.48567 10.2893C6.92178 10.6206 7.45437 10.7999 8.00202 10.7999C8.54968 10.7999 9.08227 10.6206 9.51837 10.2893L12.5297 7.9916C12.6615 7.8911 12.8277 7.84701 12.9919 7.86901C13.1561 7.89102 13.3049 7.97731 13.4055 8.10894V8.11001Z" fill="#3B3B3B"/>
</svg>
