<svg width="20" height="20" viewBox="0 0 20 20" fill="none" xmlns="http://www.w3.org/2000/svg">
<path d="M8.47273 4.35633C8.97333 4.23915 9.48586 4.18057 10 4.18178C15.0909 4.18178 18 9.99996 18 9.99996C17.5585 10.8259 17.032 11.6034 16.4291 12.32M11.5418 11.5418C11.3421 11.7561 11.1012 11.9281 10.8336 12.0473C10.5659 12.1666 10.277 12.2307 9.98406 12.2359C9.69111 12.241 9.40012 12.1871 9.12844 12.0774C8.85677 11.9677 8.60998 11.8043 8.4028 11.5972C8.19561 11.39 8.03228 11.1432 7.92255 10.8715C7.81282 10.5998 7.75893 10.3088 7.7641 10.0159C7.76926 9.72294 7.83339 9.43403 7.95264 9.1664C8.07189 8.89876 8.24382 8.65789 8.45818 8.45814M14.32 14.32C13.0768 15.2676 11.563 15.7926 10 15.8181C4.90909 15.8181 2 9.99996 2 9.99996C2.90465 8.31407 4.15937 6.84113 5.68 5.67996L14.32 14.32Z" stroke="#3B3B3B" stroke-width="1.5" stroke-linecap="round" stroke-linejoin="round"/>
<path d="M2 2L18 18" stroke="#3B3B3B" stroke-width="1.5" stroke-linecap="round" stroke-linejoin="round"/>
</svg>
