<svg width="18" height="14" viewBox="0 0 18 14" fill="none" xmlns="http://www.w3.org/2000/svg">
<path d="M7.47273 1.35645C7.97333 1.23927 8.48586 1.18069 9 1.1819C14.0909 1.1819 17 7.00008 17 7.00008C16.5585 7.82598 16.032 8.60353 15.4291 9.32008M10.5418 8.5419C10.3421 8.75626 10.1012 8.9282 9.83356 9.04745C9.56593 9.16669 9.27702 9.23082 8.98406 9.23599C8.69111 9.24115 8.40012 9.18726 8.12844 9.07753C7.85677 8.9678 7.60998 8.80447 7.4028 8.59729C7.19561 8.3901 7.03228 8.14331 6.92255 7.87164C6.81282 7.59996 6.75893 7.30897 6.7641 7.01602C6.76926 6.72306 6.83339 6.43415 6.95264 6.16652C7.07189 5.89888 7.24382 5.65801 7.45818 5.45827M13.32 11.3201C12.0768 12.2677 10.563 12.7927 9 12.8183C3.90909 12.8183 1 7.00008 1 7.00008C1.90465 5.31419 3.15937 3.84125 4.68 2.68008L13.32 11.3201Z" stroke="#3B3B3B" stroke-width="1.5" stroke-linecap="round" stroke-linejoin="round"/>
</svg>
