<svg width="20" height="20" viewBox="0 0 20 20" fill="none" xmlns="http://www.w3.org/2000/svg">
<path d="M11.6695 7.75H4.46953C4.35018 7.75 4.23572 7.79741 4.15133 7.8818C4.06694 7.96619 4.01953 8.08065 4.01953 8.2C4.01953 8.31935 4.06694 8.43381 4.15133 8.5182C4.23572 8.60259 4.35018 8.65 4.46953 8.65H11.6695C11.7889 8.65 11.9033 8.60259 11.9877 8.5182C12.0721 8.43381 12.1195 8.31935 12.1195 8.2C12.1195 8.08065 12.0721 7.96619 11.9877 7.8818C11.9033 7.79741 11.7889 7.75 11.6695 7.75Z" fill="#041967" stroke="#041967" stroke-width="0.4"/>
<path d="M15.2689 6.8501C15.0019 6.8501 14.7409 6.92927 14.5189 7.07761C14.2969 7.22595 14.1239 7.4368 14.0217 7.68348C13.9195 7.93016 13.8928 8.2016 13.9449 8.46347C13.997 8.72535 14.1256 8.9659 14.3144 9.1547C14.5032 9.3435 14.7437 9.47207 15.0056 9.52416C15.2675 9.57625 15.5389 9.54952 15.7856 9.44734C16.0323 9.34516 16.2431 9.17213 16.3914 8.95012C16.5398 8.72812 16.619 8.46711 16.619 8.2001C16.619 7.84206 16.4767 7.49868 16.2235 7.2455C15.9704 6.99233 15.627 6.8501 15.2689 6.8501ZM15.2689 8.6501C15.1799 8.6501 15.0929 8.62371 15.0189 8.57426C14.9449 8.52482 14.8873 8.45454 14.8532 8.37231C14.8191 8.29008 14.8102 8.1996 14.8276 8.11231C14.845 8.02502 14.8878 7.94484 14.9507 7.8819C15.0137 7.81897 15.0939 7.77611 15.1812 7.75875C15.2685 7.74138 15.3589 7.75029 15.4412 7.78435C15.5234 7.81841 15.5937 7.87609 15.6431 7.95009C15.6926 8.0241 15.719 8.1111 15.719 8.2001C15.7189 8.31942 15.6714 8.43383 15.587 8.5182C15.5027 8.60257 15.3883 8.65001 15.2689 8.6501Z" fill="#041967" stroke="#041967" stroke-width="0.4"/>
<path d="M17.0693 5.05H16.6193V3.25C16.6193 2.65326 16.3823 2.08097 15.9603 1.65901C15.5384 1.23705 14.9661 1 14.3693 1H6.26934C5.6726 1 5.1003 1.23705 4.67835 1.65901C4.25639 2.08097 4.01934 2.65326 4.01934 3.25V5.05H3.56934C2.9726 5.05 2.4003 5.28705 1.97835 5.70901C1.55639 6.13097 1.31934 6.70326 1.31934 7.3L1.31934 13.6C1.31934 14.1967 1.55639 14.769 1.97835 15.191C2.4003 15.6129 2.9726 15.85 3.56934 15.85H4.01934V17.875C4.01934 18.1734 4.13786 18.4595 4.34884 18.6705C4.55982 18.8815 4.84597 19 5.14434 19H15.4943C15.7927 19 16.0789 18.8815 16.2898 18.6705C16.5008 18.4595 16.6193 18.1734 16.6193 17.875V15.85H17.0693C17.6661 15.85 18.2384 15.6129 18.6603 15.191C19.0823 14.769 19.3193 14.1967 19.3193 13.6V7.3C19.3193 6.70326 19.0823 6.13097 18.6603 5.70901C18.2384 5.28705 17.6661 5.05 17.0693 5.05ZM4.91934 3.25C4.91971 2.89207 5.06206 2.54891 5.31515 2.29582C5.56825 2.04272 5.91141 1.90037 6.26934 1.9H14.3693C14.7273 1.90037 15.0704 2.04272 15.3235 2.29582C15.5766 2.54891 15.719 2.89207 15.7193 3.25V5.05H4.91934V3.25ZM15.7193 15.625V17.875C15.7192 17.9346 15.6955 17.9918 15.6533 18.034C15.6112 18.0762 15.554 18.0999 15.4943 18.1H5.14434C5.08469 18.0999 5.02752 18.0762 4.98534 18.034C4.94316 17.9918 4.91943 17.9346 4.91934 17.875V15.4C4.91971 15.0421 5.06206 14.6989 5.31515 14.4458C5.56825 14.1927 5.91141 14.0504 6.26934 14.05H14.3693C14.7273 14.0504 15.0704 14.1927 15.3235 14.4458C15.5766 14.6989 15.719 15.0421 15.7193 15.4V15.625ZM18.4193 13.6C18.419 13.9579 18.2766 14.3011 18.0235 14.5542C17.7704 14.8073 17.4273 14.9496 17.0693 14.95H16.5743C16.4706 14.4418 16.1945 13.985 15.7926 13.657C15.3908 13.329 14.888 13.1499 14.3693 13.15H6.26934C5.75064 13.1499 5.24784 13.329 4.84603 13.657C4.44422 13.985 4.16807 14.4418 4.06434 14.95H3.56934C3.21141 14.9496 2.86825 14.8073 2.61515 14.5542C2.36206 14.3011 2.21971 13.9579 2.21934 13.6V7.3C2.21971 6.94207 2.36206 6.59891 2.61515 6.34582C2.86825 6.09272 3.21141 5.95037 3.56934 5.95H17.0693C17.4273 5.95037 17.7704 6.09272 18.0235 6.34582C18.2766 6.59891 18.419 6.94207 18.4193 7.3V13.6Z" fill="#041967" stroke="#041967" stroke-width="0.4"/>
</svg>
