<svg width="17" height="19" viewBox="0 0 17 19" fill="none" xmlns="http://www.w3.org/2000/svg">
<path d="M1.5 4.7002H3.1H15.9" stroke="#EF3900" stroke-width="1.5" stroke-linecap="round" stroke-linejoin="round"/>
<path d="M5.50059 4.7V3.1C5.50059 2.67565 5.66916 2.26869 5.96922 1.96863C6.26927 1.66857 6.67624 1.5 7.10059 1.5H10.3006C10.7249 1.5 11.1319 1.66857 11.432 1.96863C11.732 2.26869 11.9006 2.67565 11.9006 3.1V4.7M14.3006 4.7V15.9C14.3006 16.3243 14.132 16.7313 13.832 17.0314C13.5319 17.3314 13.1249 17.5 12.7006 17.5H4.70059C4.27624 17.5 3.86927 17.3314 3.56922 17.0314C3.26916 16.7313 3.10059 16.3243 3.10059 15.9V4.7H14.3006Z" stroke="#EF3900" stroke-width="1.5" stroke-linecap="round" stroke-linejoin="round"/>
<path d="M7.09961 8.7002V13.5002" stroke="#EF3900" stroke-width="1.5" stroke-linecap="round" stroke-linejoin="round"/>
<path d="M10.3008 8.7002V13.5002" stroke="#EF3900" stroke-width="1.5" stroke-linecap="round" stroke-linejoin="round"/>
</svg>
