<svg width="19" height="20" viewBox="0 0 19 20" fill="none" xmlns="http://www.w3.org/2000/svg">
<path d="M9.03819 0.182006C8.87715 0.187505 8.72209 0.24436 8.59567 0.344263L1.43966 5.98194C0.531419 6.69772 0 7.79146 0 8.9478V18.5593C0 19.2458 0.572166 19.818 1.25872 19.818H6.29359C6.98014 19.818 7.55231 19.2458 7.55231 18.5593V13.5244C7.55231 13.3759 7.6555 13.2727 7.80405 13.2727H10.3215C10.47 13.2727 10.5732 13.3759 10.5732 13.5244V18.5593C10.5732 19.2458 11.1454 19.818 11.8319 19.818H16.8668C17.5534 19.818 18.1255 19.2458 18.1255 18.5593V8.9478C18.1255 7.79146 17.5941 6.69772 16.6859 5.98194L9.52987 0.344263C9.39021 0.233936 9.21608 0.176472 9.03819 0.182006ZM9.06277 1.89898L15.7517 7.16887C16.2975 7.59904 16.6151 8.25331 16.6151 8.9478V18.3075H12.0837V13.5244C12.0837 12.5603 11.2856 11.7622 10.3215 11.7622H7.80405C6.8399 11.7622 6.04185 12.5603 6.04185 13.5244V18.3075H1.51046V8.9478C1.51046 8.25331 1.82803 7.59904 2.37386 7.16887L9.06277 1.89898Z" fill="#041967"/>
</svg>
