<svg width="17" height="12" viewBox="0 0 17 12" fill="none" xmlns="http://www.w3.org/2000/svg">
<path d="M7.17502 6.59472L2.01205 11.7537C1.85452 11.9113 1.64082 11.9999 1.41796 12C1.19511 12.0001 0.981347 11.9116 0.823709 11.7541C0.666071 11.5966 0.577469 11.3829 0.577395 11.16C0.577319 10.9371 0.665775 10.7234 0.823306 10.5657L5.3927 6.00034L0.827311 1.43494C0.749257 1.35689 0.687335 1.26423 0.645092 1.16224C0.60285 1.06026 0.581112 0.950956 0.581112 0.840571C0.581112 0.730185 0.60285 0.62088 0.645093 0.518897C0.687335 0.416915 0.749257 0.324252 0.827311 0.246197C0.905365 0.168143 0.998027 0.106226 1.10001 0.0639843C1.20199 0.0217413 1.3113 -5.34204e-07 1.42168 -5.24554e-07C1.53207 -5.14904e-07 1.64137 0.0217414 1.74335 0.0639844C1.84534 0.106226 1.938 0.168143 2.01606 0.246197L7.17582 5.40597C7.25383 5.48397 7.31571 5.57657 7.35793 5.67848C7.40014 5.7804 7.42188 5.88963 7.42188 5.99994C7.42188 6.11025 7.40014 6.21949 7.35793 6.3214C7.31571 6.42332 7.25383 6.51592 7.17582 6.59392L7.17502 6.59472Z" fill="#1A1A1A"/>
<path d="M16.175 6.59472L11.0121 11.7537C10.8545 11.9113 10.6408 11.9999 10.418 12C10.1951 12.0001 9.98135 11.9116 9.82371 11.7541C9.66607 11.5966 9.57747 11.3829 9.57739 11.16C9.57732 10.9371 9.66577 10.7234 9.82331 10.5657L14.3927 6.00034L9.82731 1.43494C9.74926 1.35689 9.68733 1.26423 9.64509 1.16224C9.60285 1.06026 9.58111 0.950956 9.58111 0.840571C9.58111 0.730185 9.60285 0.62088 9.64509 0.518897C9.68734 0.416915 9.74926 0.324252 9.82731 0.246197C9.90537 0.168143 9.99803 0.106226 10.1 0.0639843C10.202 0.0217413 10.3113 -5.34204e-07 10.4217 -5.24554e-07C10.5321 -5.14904e-07 10.6414 0.0217414 10.7434 0.0639844C10.8453 0.106226 10.938 0.168143 11.0161 0.246197L16.1758 5.40597C16.2538 5.48397 16.3157 5.57657 16.3579 5.67848C16.4001 5.7804 16.4219 5.88963 16.4219 5.99994C16.4219 6.11025 16.4001 6.21949 16.3579 6.3214C16.3157 6.42332 16.2538 6.51592 16.1758 6.59392L16.175 6.59472Z" fill="#1A1A1A"/>
</svg>
