<svg width="24" height="25" viewBox="0 0 24 25" fill="none" xmlns="http://www.w3.org/2000/svg">
<path d="M17.7299 8.39195C17.7299 6.82931 17.1091 5.33067 16.0042 4.22571C14.8992 3.12076 13.4006 2.5 11.8379 2.5C10.2753 2.5 8.77665 3.12076 7.67169 4.22571C6.56673 5.33067 5.94598 6.82931 5.94598 8.39195C5.94598 15.2659 3 17.2299 3 17.2299H20.6759C20.6759 17.2299 17.7299 15.2659 17.7299 8.39195Z" stroke="#008DFF" stroke-width="1.5" stroke-linecap="round" stroke-linejoin="round"/>
<path d="M13.5364 21.5C13.3637 21.7976 13.1159 22.0447 12.8178 22.2164C12.5196 22.3881 12.1816 22.4785 11.8375 22.4785C11.4934 22.4785 11.1554 22.3881 10.8573 22.2164C10.5591 22.0447 10.3113 21.7976 10.1387 21.5" stroke="#008DFF" stroke-width="1.5" stroke-linecap="round" stroke-linejoin="round"/>
</svg>
