<svg width="7" height="12" viewBox="0 0 7 12" fill="none" xmlns="http://www.w3.org/2000/svg">
<path d="M0.324977 5.40528L5.48795 0.246315C5.64548 0.0886771 5.85918 7.50501e-05 6.08204 4.76562e-08C6.30489 -7.49548e-05 6.51865 0.0883832 6.67629 0.245915C6.83393 0.403446 6.92253 0.617147 6.92261 0.840005C6.92268 1.06286 6.83423 1.27662 6.67669 1.43426L2.1073 5.99966L6.67269 10.5651C6.75074 10.6431 6.81267 10.7358 6.85491 10.8378C6.89715 10.9397 6.91889 11.049 6.91889 11.1594C6.91889 11.2698 6.89715 11.3791 6.85491 11.4811C6.81267 11.5831 6.75074 11.6757 6.67269 11.7538C6.59464 11.8319 6.50197 11.8938 6.39999 11.936C6.29801 11.9783 6.1887 12 6.07832 12C5.96793 12 5.85863 11.9783 5.75665 11.936C5.65467 11.8938 5.562 11.8319 5.48394 11.7538L0.324177 6.59403C0.24617 6.51603 0.184292 6.42343 0.142075 6.32152C0.0998574 6.2196 0.078125 6.11037 0.078125 6.00006C0.078125 5.88975 0.0998574 5.78051 0.142075 5.6786C0.184292 5.57668 0.24617 5.48408 0.324177 5.40608L0.324977 5.40528Z" fill="#1A1A1A"/>
</svg>
