<svg width="7" height="12" viewBox="0 0 7 12" fill="none" xmlns="http://www.w3.org/2000/svg">
<path d="M6.67502 6.59472L1.51205 11.7537C1.35452 11.9113 1.14082 11.9999 0.917964 12C0.695105 12.0001 0.481347 11.9116 0.323709 11.7541C0.166071 11.5966 0.0774694 11.3829 0.0773946 11.16C0.0773192 10.9371 0.165775 10.7234 0.323306 10.5657L4.8927 6.00034L0.327311 1.43494C0.249257 1.35689 0.187335 1.26423 0.145092 1.16224C0.10285 1.06026 0.0811119 0.950956 0.0811119 0.840571C0.0811119 0.730185 0.10285 0.62088 0.145093 0.518897C0.187335 0.416915 0.249257 0.324252 0.327311 0.246197C0.405365 0.168143 0.498027 0.106226 0.60001 0.0639843C0.701993 0.0217413 0.811296 -5.34204e-07 0.921681 -5.24554e-07C1.03207 -5.14904e-07 1.14137 0.0217414 1.24335 0.0639844C1.34534 0.106226 1.438 0.168143 1.51606 0.246197L6.67582 5.40597C6.75383 5.48397 6.81571 5.57657 6.85793 5.67848C6.90014 5.7804 6.92188 5.88963 6.92188 5.99994C6.92188 6.11025 6.90014 6.21949 6.85793 6.3214C6.81571 6.42332 6.75383 6.51592 6.67582 6.59392L6.67502 6.59472Z" fill="#1A1A1A"/>
</svg>
