<svg width="18" height="20" viewBox="0 0 18 20" fill="none" xmlns="http://www.w3.org/2000/svg">
<mask id="path-1-inside-1_1865_19032" fill="white">
<path d="M17.4545 19.818V16.5453C17.4545 15.388 16.9948 14.2781 16.1765 13.4597C15.3581 12.6414 14.2482 12.1816 13.0909 12.1816H4.36364C3.20633 12.1816 2.09642 12.6414 1.27808 13.4597C0.459739 14.2781 0 15.388 0 16.5453V19.818"/>
</mask>
<path d="M15.9545 19.818C15.9545 20.6464 16.6261 21.318 17.4545 21.318C18.283 21.318 18.9545 20.6464 18.9545 19.818H15.9545ZM13.0909 12.1816V10.6816V12.1816ZM4.36364 12.1816V10.6816V12.1816ZM0 16.5453H-1.5H0ZM-1.5 19.818C-1.5 20.6464 -0.828427 21.318 0 21.318C0.828427 21.318 1.5 20.6464 1.5 19.818H-1.5ZM18.9545 19.818V16.5453H15.9545V19.818H18.9545ZM18.9545 16.5453C18.9545 14.9901 18.3368 13.4987 17.2371 12.3991L15.1158 14.5204C15.6528 15.0574 15.9545 15.7858 15.9545 16.5453H18.9545ZM17.2371 12.3991C16.1375 11.2994 14.646 10.6816 13.0909 10.6816V13.6816C13.8504 13.6816 14.5788 13.9833 15.1158 14.5204L17.2371 12.3991ZM13.0909 10.6816H4.36364V13.6816H13.0909V10.6816ZM4.36364 10.6816C2.8085 10.6816 1.31706 11.2994 0.217418 12.3991L2.33874 14.5204C2.87578 13.9833 3.60415 13.6816 4.36364 13.6816V10.6816ZM0.217418 12.3991C-0.882226 13.4987 -1.5 14.9901 -1.5 16.5453H1.5C1.5 15.7858 1.8017 15.0574 2.33874 14.5204L0.217418 12.3991ZM-1.5 16.5453V19.818H1.5V16.5453H-1.5Z" fill="#041967" mask="url(#path-1-inside-1_1865_19032)"/>
<path d="M12.3396 4.54528C12.3396 6.54103 10.7217 8.15891 8.72594 8.15891C6.73019 8.15891 5.1123 6.54103 5.1123 4.54528C5.1123 2.54952 6.73019 0.931641 8.72594 0.931641C10.7217 0.931641 12.3396 2.54952 12.3396 4.54528Z" stroke="#041967" stroke-width="1.5" stroke-linecap="round" stroke-linejoin="round"/>
</svg>
