<svg width="450" height="300" viewBox="0 0 450 300" fill="none" xmlns="http://www.w3.org/2000/svg">
<g clip-path="url(#clip0_361_8781)">
<path d="M300.596 0.699219H11.6761C5.22755 0.699219 0 5.92867 0 12.3795V243.405C0 249.855 5.22755 255.085 11.6761 255.085H300.596C307.045 255.085 312.272 249.855 312.272 243.405V12.3795C312.272 5.92867 307.045 0.699219 300.596 0.699219Z" fill="white"/>
<path d="M221.867 33.0615V255.096H329.95C333.045 255.093 336.012 253.861 338.2 251.671C340.387 249.481 341.616 246.511 341.616 243.416V33.0181L221.867 33.0615Z" fill="#FAFAFA"/>
<path d="M238.129 104.336C238.131 105.077 237.914 105.801 237.504 106.418C237.094 107.035 236.511 107.516 235.828 107.801C235.144 108.086 234.392 108.161 233.666 108.018C232.939 107.875 232.272 107.519 231.748 106.997C231.224 106.474 230.866 105.807 230.721 105.081C230.576 104.355 230.649 103.602 230.932 102.918C231.215 102.233 231.694 101.648 232.31 101.237C232.925 100.825 233.649 100.605 234.389 100.605C235.379 100.605 236.328 100.998 237.03 101.698C237.731 102.397 238.126 103.346 238.129 104.336V104.336Z" stroke="#C556F8" stroke-width="1.07" stroke-miterlimit="10"/>
<path d="M247.766 104.091H322.535" stroke="#C556F8" stroke-width="1.07" stroke-miterlimit="10"/>
<path d="M234.355 138.26C236.415 138.26 238.085 136.59 238.085 134.529C238.085 132.469 236.415 130.799 234.355 130.799C232.296 130.799 230.626 132.469 230.626 134.529C230.626 136.59 232.296 138.26 234.355 138.26Z" stroke="#C556F8" stroke-width="1.07" stroke-miterlimit="10"/>
<path d="M247.766 134.878H322.535" stroke="#C556F8" stroke-width="1.07" stroke-miterlimit="10"/>
<path d="M234.355 168.453C236.415 168.453 238.085 166.783 238.085 164.722C238.085 162.662 236.415 160.992 234.355 160.992C232.296 160.992 230.626 162.662 230.626 164.722C230.626 166.783 232.296 168.453 234.355 168.453Z" stroke="#C556F8" stroke-width="1.07" stroke-miterlimit="10"/>
<path d="M247.766 164.199H322.535" stroke="#C556F8" stroke-width="1.07" stroke-miterlimit="10"/>
<path d="M63.3733 90.5103C64.2088 85.2212 60.6 80.2559 55.3129 79.4201C50.0257 78.5843 45.0622 82.1944 44.2267 87.4836C43.3912 92.7727 47 97.7379 52.2872 98.5737C57.5744 99.4095 62.5378 95.7995 63.3733 90.5103Z" stroke="#008DFF" stroke-miterlimit="10"/>
<path d="M89.7866 95.8576C93.5716 92.0712 93.5716 85.9322 89.7866 82.1459C86.0016 78.3595 79.8649 78.3595 76.0799 82.1459C72.2949 85.9323 72.2949 92.0712 76.0799 95.8576C79.8649 99.6439 86.0016 99.644 89.7866 95.8576Z" stroke="#008DFF" stroke-miterlimit="10"/>
<path d="M121.485 91.1928C122.71 85.9801 119.479 80.7609 114.269 79.5354C109.058 78.3099 103.841 81.5422 102.616 86.7549C101.391 91.9675 104.622 97.1866 109.832 98.4121C115.043 99.6376 120.26 96.4054 121.485 91.1928Z" stroke="#008DFF" stroke-miterlimit="10"/>
<path d="M150.744 90.5158C151.599 85.2298 148.008 80.2513 142.724 79.3961C137.44 78.5409 132.463 82.1329 131.608 87.4189C130.754 92.7049 134.344 97.6833 139.628 98.5385C144.912 99.3937 149.889 95.8018 150.744 90.5158Z" stroke="#008DFF" stroke-miterlimit="10"/>
<path d="M179.877 90.5105C180.732 85.2244 177.141 80.2459 171.857 79.3907C166.573 78.5355 161.596 82.1275 160.741 87.4135C159.886 92.6995 163.477 97.6779 168.761 98.5331C174.045 99.3883 179.022 95.7965 179.877 90.5105Z" stroke="#008DFF" stroke-miterlimit="10"/>
<path d="M209.096 90.6248C209.969 85.3416 206.395 80.3512 201.113 79.4785C195.832 78.6058 190.844 82.1812 189.971 87.4643C189.099 92.7475 192.673 97.7378 197.954 98.6105C203.235 99.4832 208.224 95.9079 209.096 90.6248Z" stroke="#D6DEED" stroke-miterlimit="10"/>
<path d="M24.653 132.512C30.0059 132.512 34.3452 128.171 34.3452 122.816C34.3452 117.462 30.0059 113.121 24.653 113.121C19.3002 113.121 14.9609 117.462 14.9609 122.816C14.9609 128.171 19.3002 132.512 24.653 132.512Z" stroke="#D6DEED" stroke-miterlimit="10"/>
<path d="M53.7946 132.512C59.1474 132.512 63.4868 128.171 63.4868 122.816C63.4868 117.462 59.1474 113.121 53.7946 113.121C48.4418 113.121 44.1025 117.462 44.1025 122.816C44.1025 128.171 48.4418 132.512 53.7946 132.512Z" stroke="#008DFF" stroke-miterlimit="10"/>
<path d="M82.9255 132.512C88.2783 132.512 92.6176 128.171 92.6176 122.816C92.6176 117.462 88.2783 113.121 82.9255 113.121C77.5727 113.121 73.2334 117.462 73.2334 122.816C73.2334 128.171 77.5727 132.512 82.9255 132.512Z" stroke="#008DFF" stroke-miterlimit="10"/>
<path d="M112.066 132.512C117.419 132.512 121.758 128.171 121.758 122.816C121.758 117.462 117.419 113.121 112.066 113.121C106.713 113.121 102.374 117.462 102.374 122.816C102.374 128.171 106.713 132.512 112.066 132.512Z" fill="#00AB97"/>
<path d="M141.197 132.512C146.55 132.512 150.889 128.171 150.889 122.816C150.889 117.462 146.55 113.121 141.197 113.121C135.844 113.121 131.505 117.462 131.505 122.816C131.505 128.171 135.844 132.512 141.197 132.512Z" stroke="#008DFF" stroke-miterlimit="10"/>
<path d="M170.339 132.512C175.691 132.512 180.031 128.171 180.031 122.816C180.031 117.462 175.691 113.121 170.339 113.121C164.986 113.121 160.646 117.462 160.646 122.816C160.646 128.171 164.986 132.512 170.339 132.512Z" stroke="#008DFF" stroke-miterlimit="10"/>
<path d="M199.469 132.512C204.822 132.512 209.162 128.171 209.162 122.816C209.162 117.462 204.822 113.121 199.469 113.121C194.117 113.121 189.777 117.462 189.777 122.816C189.777 128.171 194.117 132.512 199.469 132.512Z" stroke="#D6DEED" stroke-miterlimit="10"/>
<path d="M24.653 166.339C30.0059 166.339 34.3452 161.998 34.3452 156.643C34.3452 151.288 30.0059 146.947 24.653 146.947C19.3002 146.947 14.9609 151.288 14.9609 156.643C14.9609 161.998 19.3002 166.339 24.653 166.339Z" stroke="#D6DEED" stroke-miterlimit="10"/>
<path d="M53.7946 166.339C59.1474 166.339 63.4868 161.998 63.4868 156.643C63.4868 151.288 59.1474 146.947 53.7946 146.947C48.4418 146.947 44.1025 151.288 44.1025 156.643C44.1025 161.998 48.4418 166.339 53.7946 166.339Z" stroke="#008DFF" stroke-miterlimit="10"/>
<path d="M82.9255 166.339C88.2783 166.339 92.6176 161.998 92.6176 156.643C92.6176 151.288 88.2783 146.947 82.9255 146.947C77.5727 146.947 73.2334 151.288 73.2334 156.643C73.2334 161.998 77.5727 166.339 82.9255 166.339Z" stroke="#008DFF" stroke-miterlimit="10"/>
<path d="M112.066 166.339C117.419 166.339 121.758 161.998 121.758 156.643C121.758 151.288 117.419 146.947 112.066 146.947C106.713 146.947 102.374 151.288 102.374 156.643C102.374 161.998 106.713 166.339 112.066 166.339Z" stroke="#008DFF" stroke-miterlimit="10"/>
<path d="M141.197 166.339C146.55 166.339 150.889 161.998 150.889 156.643C150.889 151.288 146.55 146.947 141.197 146.947C135.844 146.947 131.505 151.288 131.505 156.643C131.505 161.998 135.844 166.339 141.197 166.339Z" stroke="#008DFF" stroke-miterlimit="10"/>
<path d="M170.339 166.339C175.691 166.339 180.031 161.998 180.031 156.643C180.031 151.288 175.691 146.947 170.339 146.947C164.986 146.947 160.646 151.288 160.646 156.643C160.646 161.998 164.986 166.339 170.339 166.339Z" stroke="#008DFF" stroke-miterlimit="10"/>
<path d="M199.469 166.339C204.822 166.339 209.162 161.998 209.162 156.643C209.162 151.288 204.822 146.947 199.469 146.947C194.117 146.947 189.777 151.288 189.777 156.643C189.777 161.998 194.117 166.339 199.469 166.339Z" stroke="#D6DEED" stroke-miterlimit="10"/>
<path d="M28.3655 199.415C33.3109 197.366 35.6593 191.694 33.6109 186.747C31.5624 181.8 25.8929 179.45 20.9475 181.5C16.0022 183.549 13.6537 189.22 15.7022 194.168C17.7506 199.115 23.4202 201.464 28.3655 199.415Z" stroke="#D6DEED" stroke-miterlimit="10"/>
<path d="M57.3211 199.484C62.3073 197.537 64.771 191.914 62.824 186.926C60.877 181.938 55.2565 179.474 50.2703 181.421C45.2842 183.369 42.8206 188.992 44.7676 193.979C46.7146 198.967 52.335 201.432 57.3211 199.484Z" stroke="#008DFF" stroke-miterlimit="10"/>
<path d="M92.2782 192.614C93.5123 187.404 90.2904 182.179 85.0818 180.944C79.8733 179.71 74.6504 182.933 73.4162 188.143C72.1821 193.354 75.404 198.578 80.6126 199.813C85.8212 201.048 91.0441 197.825 92.2782 192.614Z" stroke="#008DFF" stroke-miterlimit="10"/>
<path d="M118.914 197.307C122.699 193.521 122.699 187.382 118.914 183.595C115.129 179.809 108.992 179.809 105.207 183.595C101.422 187.382 101.422 193.521 105.207 197.307C108.992 201.093 115.129 201.093 118.914 197.307Z" stroke="#008DFF" stroke-miterlimit="10"/>
<path d="M144.874 199.451C149.824 197.414 152.186 191.747 150.148 186.795C148.111 181.844 142.447 179.482 137.497 181.519C132.547 183.557 130.186 189.224 132.223 194.175C134.26 199.127 139.924 201.489 144.874 199.451Z" stroke="#008DFF" stroke-miterlimit="10"/>
<path d="M174.024 199.451C178.974 197.413 181.335 191.747 179.298 186.795C177.261 181.843 171.596 179.481 166.646 181.519C161.696 183.557 159.335 189.223 161.372 194.175C163.409 199.127 169.074 201.489 174.024 199.451Z" stroke="#008DFF" stroke-miterlimit="10"/>
<path d="M203.316 199.292C208.231 197.173 210.5 191.469 208.381 186.551C206.263 181.634 200.561 179.365 195.645 181.484C190.729 183.603 188.461 189.307 190.579 194.225C192.697 199.142 198.4 201.411 203.316 199.292Z" stroke="#D6DEED" stroke-miterlimit="10"/>
<path d="M24.653 233.98C30.0059 233.98 34.3452 229.639 34.3452 224.284C34.3452 218.93 30.0059 214.589 24.653 214.589C19.3002 214.589 14.9609 218.93 14.9609 224.284C14.9609 229.639 19.3002 233.98 24.653 233.98Z" stroke="#D6DEED" stroke-miterlimit="10"/>
<path d="M53.7946 233.98C59.1474 233.98 63.4868 229.639 63.4868 224.284C63.4868 218.93 59.1474 214.589 53.7946 214.589C48.4418 214.589 44.1025 218.93 44.1025 224.284C44.1025 229.639 48.4418 233.98 53.7946 233.98Z" stroke="#008DFF" stroke-miterlimit="10"/>
<path d="M82.9255 233.98C88.2783 233.98 92.6176 229.639 92.6176 224.284C92.6176 218.93 88.2783 214.589 82.9255 214.589C77.5727 214.589 73.2334 218.93 73.2334 224.284C73.2334 229.639 77.5727 233.98 82.9255 233.98Z" stroke="#008DFF" stroke-miterlimit="10"/>
<path d="M20.6201 62.5495L21.379 60.8576C22.3348 61.5193 23.4691 61.8748 24.6314 61.8771C25.9649 61.8771 26.4961 61.4324 26.4961 60.7926C26.4961 58.9706 20.8587 60.2177 20.8587 56.6063C20.8587 54.9578 22.1921 53.5913 24.9458 53.5913C26.127 53.5621 27.2934 53.8585 28.3174 54.4481L27.6236 56.1508C26.8073 55.6712 25.8814 55.4098 24.9349 55.3916C23.6015 55.3916 23.092 55.8905 23.092 56.4761C23.092 58.2656 28.7294 57.0292 28.7294 60.5973C28.7294 62.2241 27.3851 63.6123 24.6097 63.6123C23.2022 63.6775 21.8088 63.3064 20.6201 62.5495Z" fill="black"/>
<path d="M57.1549 63.5146V57.6799L54.2928 62.4844H53.2845L50.4333 57.8101V63.5146H48.3301V53.7539H50.184L53.8158 59.7839L57.4042 53.7539H59.2472V63.5146H57.1549Z" fill="black"/>
<path d="M81.797 55.6302H78.6963V53.7974H87.1525V55.6302H84.052V63.5147H81.797V55.6302Z" fill="black"/>
<path d="M119.818 53.7974L116.641 63.5581H114.234L112.066 56.975L109.898 63.5581H107.502L104.314 53.7974H106.645L108.814 60.619L111.101 53.7974H113.183L115.351 60.6732L117.606 53.7974H119.818Z" fill="black"/>
<path d="M140.069 55.6302H136.969V53.7974H145.425V55.6302H142.324V63.5147H140.069V55.6302Z" fill="black"/>
<path d="M168.907 55.5976V58.1679H173.406V59.9683H168.907V63.5146H166.663V53.7539H174.003V55.5543L168.907 55.5976Z" fill="black"/>
<path d="M195.436 62.5495L196.194 60.8576C197.15 61.5193 198.284 61.8748 199.447 61.8771C200.769 61.8771 201.312 61.4324 201.312 60.7926C201.312 58.9706 195.674 60.2177 195.674 56.6063C195.674 54.9578 196.997 53.5913 199.761 53.5913C200.942 53.5621 202.109 53.8585 203.133 54.4481L202.439 56.1508C201.623 55.6712 200.697 55.4098 199.75 55.3916C198.417 55.3916 197.907 55.8905 197.907 56.4761C197.907 58.2656 203.545 57.0292 203.545 60.5973C203.545 62.2241 202.201 63.6123 199.425 63.6123C198.018 63.6775 196.624 63.3064 195.436 62.5495Z" fill="black"/>
<path d="M1 9.77295C1 5.35467 4.58172 1.77295 9 1.77295H332.16C336.579 1.77295 340.16 5.35467 340.16 9.77295V246.096C340.16 250.514 336.579 254.096 332.16 254.096H9.00002C4.58173 254.096 1 250.514 1 246.096V9.77295Z" stroke="#D6DEED" stroke-width="2"/>
<path d="M6.26172 10.7842C6.26172 8.02276 8.50029 5.78418 11.2617 5.78418H331.151C333.912 5.78418 336.151 8.02276 336.151 10.7842V42.116H6.26172V10.7842Z" fill="#FFDE4A"/>
</g>
<g clip-path="url(#clip1_361_8781)">
<path d="M409.215 46.9348C409.215 46.9348 431.318 69.5459 432.395 78.2469C433.472 86.9478 421.749 100.626 421.749 100.626L409.215 46.9348Z" fill="#ED7D2B"/>
<path d="M399.342 286.6C399.342 286.6 398.583 298.893 396.201 299.068C395.888 299.068 384.141 299.068 384.141 299.068L369.149 298.983C369.149 298.983 369.244 295.368 373.628 294.604C378.012 293.84 385.346 290.761 388.003 284.968C390.793 278.882 399.342 286.6 399.342 286.6Z" fill="#163560"/>
<path d="M432.742 286.6C432.742 286.6 431.978 298.893 429.601 299.068C429.284 299.068 417.537 299.068 417.537 299.068L402.545 298.983C402.545 298.983 402.645 295.368 407.023 294.604C411.402 293.84 418.747 290.761 421.399 284.968C424.193 278.882 432.742 286.6 432.742 286.6Z" fill="#163560"/>
<path d="M382.737 154.473C382.737 154.473 386.661 179.556 401.287 224.076C415.914 268.596 417.892 287.881 417.892 287.881L433.586 287.44C433.586 287.44 433.719 238.783 426.977 216.395C420.236 194.007 425.521 135.681 425.521 135.681L382.737 154.473Z" fill="#163560"/>
<path d="M375.099 137.052C375.099 137.052 374.544 174.849 381.086 221.253C387.628 267.657 385.408 287.359 385.408 287.359L401.064 287.881C401.064 287.881 410.424 241.459 407.739 218.231C405.054 195.003 420.549 138.527 420.549 138.527L375.099 137.052Z" fill="#1C468A"/>
<path d="M405.419 48.6097L397.078 54.0799L385.019 51.8311C385.185 50.8585 385.967 46.8212 386.708 43.1681C386.75 42.9546 386.798 42.7364 386.836 42.5276C387.457 39.4154 387.993 36.7444 387.993 36.7444L399.256 31.7771L403.459 29.9221C403.459 29.9885 403.132 33.3759 403.089 33.8693C402.297 42.6462 405.419 48.6097 405.419 48.6097Z" fill="#FFB27D"/>
<path d="M388.103 45.8484C388.34 45.7488 402.63 41.5311 404.181 42.053C405.733 42.5749 406.653 45.5685 406.653 45.5685L383.278 50.8536C383.278 50.8536 385.119 47.1056 388.103 45.8484Z" fill="#ED7D2B"/>
<path d="M426.579 141.72C424.16 152.77 383.852 154.079 373.444 144.05C372.258 142.906 372.201 137.588 372.647 130.415C373.519 116.405 376.319 95.3072 376.442 84.5615C376.549 79.404 377.126 74.2669 378.164 69.2139C379.394 62.9688 381.102 56.8274 383.274 50.8441C383.274 50.8441 402.962 44.4773 406.649 45.559C424.397 50.773 429.004 130.671 426.579 141.72Z" fill="#FF9843"/>
<path d="M372.665 130.415C373.538 116.405 376.337 95.3074 376.46 84.5617C376.568 79.4042 377.144 74.2671 378.183 69.2141L390.043 67.1218C390.043 67.1218 401.591 114.417 372.665 130.415Z" fill="#ED7D2B"/>
<path d="M379.079 110.887C379.3 111.449 379.333 112.067 379.173 112.648C379.013 113.23 378.669 113.744 378.192 114.114C376.493 115.409 375.398 117.506 375.787 119.043C376.176 120.58 379.89 123.075 381.181 122.672C382.471 122.269 385.095 120.248 384.81 119.441C384.525 118.635 386.575 112.325 383.434 109.92C380.294 107.514 379.079 110.887 379.079 110.887Z" fill="#FFB27D"/>
<path d="M392.335 48.0071C392.335 48.0071 380.787 50.1705 371.583 63.7343C362.379 77.2981 356.326 87.3797 358.019 92.2663C359.713 97.1528 375.17 114.09 377.831 114.09C380.493 114.09 384.796 112.154 385.038 107.794C385.038 107.794 374.159 91.4882 376.304 89.0449C377.219 88.0012 390.427 77.2744 392.316 82.123C395.418 90.1551 392.335 48.0071 392.335 48.0071Z" fill="#FF9843"/>
<path d="M402.241 34.0209C399.764 38.2149 390.546 41.8347 386.703 43.1679C386.746 42.9544 386.793 42.7362 386.831 42.5274C387.453 39.4152 387.989 36.7441 387.989 36.7441L399.252 31.7769C401.742 31.739 403.246 32.3083 402.241 34.0209Z" fill="#FCA56B"/>
<path d="M383.743 36.061C383.743 36.061 401.89 41.7209 405.24 30.3679C408.589 19.0149 413.191 12.0978 401.748 8.00354C390.305 3.90924 386.765 7.57656 384.725 11.092C382.685 14.6075 379.113 34.2962 383.743 36.061Z" fill="#FFB27D"/>
<path d="M385.437 10.0105C385.437 10.0105 386.595 23.2185 389.327 22.6445C392.06 22.0704 394.546 21.6482 394.133 25.6286C393.72 29.609 391.88 35.9426 400.301 36.6448C408.722 37.3469 418.893 13.9055 416.578 9.79226C409.889 -2.07786 375.787 -4.4737 385.437 10.0105Z" fill="#163560"/>
</g>
<path d="M449.147 300H351.073C350.865 300 350.665 299.917 350.518 299.77C350.371 299.623 350.288 299.423 350.288 299.215C350.288 299.007 350.371 298.808 350.518 298.66C350.665 298.513 350.865 298.431 351.073 298.431H449.147C449.355 298.431 449.555 298.513 449.702 298.66C449.849 298.808 449.932 299.007 449.932 299.215C449.932 299.423 449.849 299.623 449.702 299.77C449.555 299.917 449.355 300 449.147 300Z" fill="#3F3D56"/>
<defs>
<clipPath id="clip0_361_8781">
<rect width="341.594" height="255.096" fill="white"/>
</clipPath>
<clipPath id="clip1_361_8781">
<rect width="75.8843" height="299.078" fill="white" transform="translate(357.721)"/>
</clipPath>
</defs>
</svg>
