<svg width="24" height="24" viewBox="0 0 24 24" fill="none" xmlns="http://www.w3.org/2000/svg">
<path d="M12.1364 13.2279C12.8142 13.2279 13.3637 12.6785 13.3637 12.0007C13.3637 11.3229 12.8142 10.7734 12.1364 10.7734C11.4586 10.7734 10.9092 11.3229 10.9092 12.0007C10.9092 12.6785 11.4586 13.2279 12.1364 13.2279Z" fill="#041967" stroke="#041967" stroke-width="1.5" stroke-linecap="round" stroke-linejoin="round"/>
<path d="M12.1364 4.63613C12.8142 4.63613 13.3637 4.08667 13.3637 3.40888C13.3637 2.7311 12.8142 2.18164 12.1364 2.18164C11.4586 2.18164 10.9092 2.7311 10.9092 3.40888C10.9092 4.08667 11.4586 4.63613 12.1364 4.63613Z" fill="#041967" stroke="#041967" stroke-width="1.5" stroke-linecap="round" stroke-linejoin="round"/>
<path d="M12.1364 21.8178C12.8142 21.8178 13.3637 21.2683 13.3637 20.5905C13.3637 19.9127 12.8142 19.3633 12.1364 19.3633C11.4586 19.3633 10.9092 19.9127 10.9092 20.5905C10.9092 21.2683 11.4586 21.8178 12.1364 21.8178Z" fill="#041967" stroke="#041967" stroke-width="1.5" stroke-linecap="round" stroke-linejoin="round"/>
</svg>
