<svg width="15" height="20" viewBox="0 0 15 20" fill="none" xmlns="http://www.w3.org/2000/svg">
<path d="M8.3859 9.33301H6.67923C3.10194 9.33672 0.202871 12.2358 0.199219 15.8131V17.2731C0.202871 18.7775 1.42151 19.9961 2.92589 19.9998H12.1393C13.6437 19.9961 14.8623 18.7775 14.866 17.2731V15.8131C14.8623 12.2358 11.9632 9.33672 8.3859 9.33301ZM13.5326 17.2731C13.529 18.0411 12.9073 18.6628 12.1393 18.6664H2.92589C2.15789 18.6628 1.53622 18.0411 1.53256 17.2731V15.8131C1.53256 12.9706 3.83683 10.6664 6.67928 10.6664H8.38596C11.2284 10.6664 13.5327 12.9706 13.5327 15.8131V17.2731H13.5326Z" fill="#041967"/>
<path d="M7.53063 8.66672C9.92387 8.66672 11.864 6.72659 11.864 4.33336C11.864 1.94013 9.92387 0 7.53063 0C5.1374 0 3.19727 1.94013 3.19727 4.33336C3.20092 6.72511 5.13888 8.66307 7.53063 8.66672ZM7.53063 1.33335C9.18749 1.33335 10.5306 2.67651 10.5306 4.33336C10.5306 5.99021 9.18749 7.33337 7.53063 7.33337C5.87378 7.33337 4.53061 5.99021 4.53061 4.33336C4.53427 2.67799 5.87526 1.337 7.53063 1.33335Z" fill="#041967"/>
</svg>
